G04*
G04 #@! TF.GenerationSoftware,Altium Limited,CircuitStudio,1.5.2 (30)*
G04*
G04 Layer_Color=15065295*
%FSLAX25Y25*%
%MOIN*%
G70*
G01*
G75*
%ADD12C,0.01575*%
%ADD15C,0.00787*%
G36*
X410518Y412518D02*
X410603D01*
X410695Y412515D01*
X410793Y412512D01*
X410895Y412509D01*
X410997Y412502D01*
X411098Y412499D01*
X411197Y412489D01*
X411289Y412482D01*
X411371Y412472D01*
X411446Y412459D01*
X411476Y412453D01*
X411505Y412446D01*
X411512D01*
X411525Y412440D01*
X411548Y412433D01*
X411577Y412423D01*
X411613Y412407D01*
X411656Y412391D01*
X411705Y412367D01*
X411758Y412341D01*
X411813Y412312D01*
X411872Y412276D01*
X411932Y412233D01*
X411994Y412190D01*
X412056Y412138D01*
X412115Y412082D01*
X412174Y412020D01*
X412230Y411951D01*
X412233Y411948D01*
X412243Y411935D01*
X412256Y411912D01*
X412276Y411882D01*
X412299Y411846D01*
X412325Y411800D01*
X412351Y411748D01*
X412378Y411689D01*
X412404Y411620D01*
X412433Y411544D01*
X412456Y411466D01*
X412479Y411377D01*
X412499Y411285D01*
X412512Y411187D01*
X412522Y411082D01*
X412525Y410970D01*
Y410964D01*
Y410951D01*
Y410924D01*
X412522Y410891D01*
X412519Y410852D01*
X412515Y410806D01*
X412512Y410754D01*
X412506Y410698D01*
X412496Y410639D01*
X412483Y410573D01*
X412453Y410442D01*
X412433Y410377D01*
X412410Y410311D01*
X412384Y410249D01*
X412355Y410186D01*
X412351Y410183D01*
X412348Y410173D01*
X412338Y410157D01*
X412325Y410134D01*
X412309Y410108D01*
X412289Y410078D01*
X412266Y410042D01*
X412240Y410006D01*
X412178Y409927D01*
X412102Y409845D01*
X412020Y409763D01*
X411925Y409691D01*
X411922Y409688D01*
X411912Y409685D01*
X411899Y409675D01*
X411879Y409661D01*
X411856Y409648D01*
X411830Y409632D01*
X411797Y409612D01*
X411761Y409593D01*
X411682Y409553D01*
X411594Y409514D01*
X411499Y409481D01*
X411400Y409455D01*
X411397D01*
X411384Y409452D01*
X411361Y409448D01*
X411331Y409445D01*
X411295Y409439D01*
X411249Y409432D01*
X411194Y409425D01*
X411131Y409419D01*
X411059Y409412D01*
X410980Y409406D01*
X410895Y409399D01*
X410800Y409392D01*
X410698Y409389D01*
X410587Y409386D01*
X410469Y409383D01*
X409678D01*
Y407480D01*
X408661D01*
Y412522D01*
X410446D01*
X410518Y412518D01*
D02*
G37*
G36*
X421417Y432518D02*
X421476D01*
X421545Y432515D01*
X421617Y432509D01*
X421693Y432505D01*
X421772Y432499D01*
X421932Y432482D01*
X422008Y432469D01*
X422083Y432459D01*
X422155Y432443D01*
X422221Y432427D01*
X422227D01*
X422241Y432420D01*
X422264Y432413D01*
X422296Y432400D01*
X422332Y432387D01*
X422378Y432368D01*
X422428Y432344D01*
X422483Y432318D01*
X422539Y432289D01*
X422601Y432256D01*
X422664Y432217D01*
X422726Y432174D01*
X422792Y432128D01*
X422857Y432076D01*
X422920Y432020D01*
X422979Y431961D01*
X422982Y431957D01*
X422992Y431944D01*
X423008Y431928D01*
X423031Y431902D01*
X423057Y431869D01*
X423087Y431830D01*
X423123Y431784D01*
X423159Y431735D01*
X423195Y431675D01*
X423238Y431613D01*
X423277Y431547D01*
X423316Y431475D01*
X423356Y431400D01*
X423392Y431318D01*
X423428Y431233D01*
X423461Y431144D01*
X423464Y431138D01*
X423467Y431121D01*
X423477Y431095D01*
X423487Y431059D01*
X423500Y431010D01*
X423513Y430954D01*
X423530Y430888D01*
X423546Y430816D01*
X423559Y430731D01*
X423576Y430642D01*
X423589Y430544D01*
X423602Y430439D01*
X423612Y430327D01*
X423622Y430209D01*
X423625Y430085D01*
X423628Y429953D01*
Y429950D01*
Y429947D01*
Y429937D01*
Y429927D01*
Y429894D01*
X423625Y429848D01*
Y429796D01*
X423622Y429734D01*
X423615Y429662D01*
X423608Y429586D01*
X423602Y429504D01*
X423592Y429416D01*
X423562Y429238D01*
X423526Y429055D01*
X423500Y428963D01*
X423474Y428878D01*
X423471Y428871D01*
X423464Y428855D01*
X423454Y428825D01*
X423438Y428786D01*
X423418Y428740D01*
X423395Y428687D01*
X423366Y428625D01*
X423336Y428563D01*
X423300Y428490D01*
X423257Y428418D01*
X423215Y428346D01*
X423166Y428271D01*
X423113Y428199D01*
X423057Y428126D01*
X422998Y428054D01*
X422933Y427989D01*
X422929Y427985D01*
X422920Y427979D01*
X422906Y427962D01*
X422884Y427946D01*
X422857Y427923D01*
X422824Y427900D01*
X422788Y427871D01*
X422743Y427841D01*
X422696Y427808D01*
X422641Y427775D01*
X422582Y427743D01*
X422519Y427710D01*
X422450Y427677D01*
X422378Y427644D01*
X422300Y427615D01*
X422218Y427585D01*
X422214D01*
X422201Y427582D01*
X422182Y427575D01*
X422155Y427569D01*
X422122Y427562D01*
X422080Y427553D01*
X422034Y427543D01*
X421978Y427533D01*
X421916Y427523D01*
X421850Y427513D01*
X421775Y427503D01*
X421696Y427497D01*
X421608Y427490D01*
X421516Y427484D01*
X421417Y427480D01*
X419400D01*
Y432522D01*
X421365D01*
X421417Y432518D01*
D02*
G37*
G36*
X411253Y432604D02*
X411285D01*
X411318Y432600D01*
X411358Y432597D01*
X411397Y432594D01*
X411489Y432587D01*
X411590Y432574D01*
X411699Y432558D01*
X411813Y432538D01*
X411935Y432512D01*
X412056Y432479D01*
X412178Y432440D01*
X412299Y432397D01*
X412417Y432344D01*
X412525Y432282D01*
X412630Y432213D01*
X412637Y432210D01*
X412653Y432194D01*
X412679Y432174D01*
X412715Y432141D01*
X412758Y432102D01*
X412804Y432053D01*
X412856Y431994D01*
X412912Y431931D01*
X412971Y431856D01*
X413027Y431774D01*
X413086Y431685D01*
X413139Y431587D01*
X413191Y431482D01*
X413237Y431370D01*
X413276Y431252D01*
X413309Y431124D01*
X412299Y430937D01*
Y430941D01*
X412292Y430954D01*
X412286Y430973D01*
X412276Y431000D01*
X412266Y431029D01*
X412250Y431065D01*
X412230Y431105D01*
X412207Y431151D01*
X412181Y431197D01*
X412155Y431243D01*
X412118Y431292D01*
X412082Y431341D01*
X412043Y431387D01*
X411997Y431436D01*
X411948Y431479D01*
X411896Y431521D01*
X411892Y431525D01*
X411882Y431531D01*
X411866Y431541D01*
X411843Y431554D01*
X411813Y431570D01*
X411781Y431590D01*
X411741Y431610D01*
X411695Y431630D01*
X411643Y431649D01*
X411587Y431669D01*
X411528Y431689D01*
X411462Y431705D01*
X411394Y431718D01*
X411321Y431728D01*
X411246Y431735D01*
X411164Y431738D01*
X411134D01*
X411098Y431735D01*
X411053Y431731D01*
X410997Y431725D01*
X410931Y431715D01*
X410859Y431702D01*
X410780Y431685D01*
X410698Y431662D01*
X410610Y431636D01*
X410521Y431600D01*
X410433Y431561D01*
X410344Y431511D01*
X410259Y431456D01*
X410177Y431390D01*
X410101Y431315D01*
X410098Y431311D01*
X410085Y431295D01*
X410065Y431269D01*
X410039Y431236D01*
X410009Y431190D01*
X409977Y431138D01*
X409941Y431072D01*
X409904Y431000D01*
X409868Y430914D01*
X409832Y430823D01*
X409800Y430718D01*
X409770Y430606D01*
X409744Y430485D01*
X409724Y430350D01*
X409711Y430209D01*
X409708Y430058D01*
Y430055D01*
Y430049D01*
Y430035D01*
Y430019D01*
Y429999D01*
X409711Y429973D01*
Y429944D01*
X409714Y429911D01*
X409718Y429875D01*
X409721Y429835D01*
X409727Y429750D01*
X409740Y429655D01*
X409757Y429553D01*
X409780Y429445D01*
X409806Y429333D01*
X409839Y429222D01*
X409878Y429110D01*
X409921Y429002D01*
X409977Y428897D01*
X410039Y428799D01*
X410108Y428710D01*
X410111Y428707D01*
X410128Y428691D01*
X410150Y428668D01*
X410180Y428641D01*
X410219Y428605D01*
X410269Y428569D01*
X410324Y428530D01*
X410390Y428487D01*
X410459Y428445D01*
X410541Y428405D01*
X410626Y428369D01*
X410718Y428333D01*
X410816Y428307D01*
X410925Y428284D01*
X411036Y428271D01*
X411154Y428264D01*
X411187D01*
X411210Y428267D01*
X411239D01*
X411272Y428271D01*
X411312Y428274D01*
X411354Y428281D01*
X411400Y428287D01*
X411449Y428294D01*
X411558Y428317D01*
X411676Y428346D01*
X411794Y428389D01*
X411797D01*
X411807Y428395D01*
X411827Y428402D01*
X411846Y428412D01*
X411876Y428425D01*
X411909Y428438D01*
X411945Y428454D01*
X411984Y428474D01*
X412069Y428517D01*
X412164Y428569D01*
X412256Y428628D01*
X412348Y428694D01*
Y429333D01*
X411180D01*
Y430183D01*
X413375D01*
Y428172D01*
X413372Y428169D01*
X413362Y428159D01*
X413342Y428143D01*
X413316Y428120D01*
X413283Y428094D01*
X413244Y428061D01*
X413194Y428028D01*
X413139Y427989D01*
X413076Y427946D01*
X413007Y427903D01*
X412932Y427857D01*
X412850Y427812D01*
X412758Y427766D01*
X412663Y427720D01*
X412558Y427674D01*
X412446Y427628D01*
X412443D01*
X412440Y427625D01*
X412430Y427621D01*
X412420Y427618D01*
X412388Y427605D01*
X412342Y427592D01*
X412286Y427575D01*
X412223Y427556D01*
X412148Y427533D01*
X412066Y427513D01*
X411977Y427490D01*
X411879Y427467D01*
X411781Y427448D01*
X411672Y427431D01*
X411564Y427418D01*
X411449Y427405D01*
X411335Y427398D01*
X411220Y427395D01*
X411164D01*
X411144Y427398D01*
X411115D01*
X411085Y427402D01*
X411017Y427405D01*
X410938Y427411D01*
X410849Y427421D01*
X410751Y427438D01*
X410646Y427454D01*
X410534Y427477D01*
X410420Y427503D01*
X410301Y427536D01*
X410183Y427572D01*
X410069Y427618D01*
X409950Y427667D01*
X409839Y427726D01*
X409832Y427730D01*
X409813Y427743D01*
X409783Y427762D01*
X409744Y427789D01*
X409695Y427821D01*
X409639Y427864D01*
X409577Y427913D01*
X409508Y427969D01*
X409439Y428031D01*
X409363Y428103D01*
X409291Y428182D01*
X409219Y428267D01*
X409147Y428359D01*
X409078Y428458D01*
X409012Y428563D01*
X408953Y428674D01*
Y428678D01*
X408950Y428681D01*
X408947Y428691D01*
X408940Y428704D01*
X408927Y428736D01*
X408907Y428783D01*
X408884Y428838D01*
X408861Y428907D01*
X408832Y428986D01*
X408806Y429074D01*
X408779Y429170D01*
X408753Y429275D01*
X408727Y429386D01*
X408704Y429501D01*
X408684Y429625D01*
X408671Y429753D01*
X408661Y429885D01*
X408658Y430019D01*
Y430022D01*
Y430029D01*
Y430039D01*
Y430055D01*
Y430071D01*
X408661Y430094D01*
Y430121D01*
X408665Y430150D01*
X408668Y430219D01*
X408674Y430301D01*
X408684Y430390D01*
X408701Y430488D01*
X408717Y430596D01*
X408740Y430708D01*
X408766Y430823D01*
X408799Y430941D01*
X408835Y431062D01*
X408881Y431180D01*
X408930Y431301D01*
X408989Y431416D01*
Y431420D01*
X408993Y431423D01*
X409006Y431443D01*
X409025Y431475D01*
X409052Y431518D01*
X409085Y431567D01*
X409127Y431626D01*
X409176Y431692D01*
X409235Y431764D01*
X409298Y431839D01*
X409370Y431915D01*
X409452Y431994D01*
X409537Y432072D01*
X409632Y432148D01*
X409734Y432223D01*
X409842Y432292D01*
X409957Y432358D01*
X409964Y432361D01*
X409980Y432368D01*
X410006Y432381D01*
X410046Y432397D01*
X410091Y432417D01*
X410147Y432436D01*
X410216Y432459D01*
X410292Y432482D01*
X410374Y432505D01*
X410465Y432528D01*
X410564Y432548D01*
X410672Y432568D01*
X410784Y432584D01*
X410905Y432597D01*
X411033Y432604D01*
X411164Y432607D01*
X411226D01*
X411253Y432604D01*
D02*
G37*
G36*
X418328Y427480D02*
X417304D01*
X415271Y430767D01*
Y427480D01*
X414326D01*
Y432522D01*
X415316D01*
X417380Y429153D01*
Y432522D01*
X418328D01*
Y427480D01*
D02*
G37*
G36*
X415779Y422604D02*
X415812D01*
X415845Y422600D01*
X415884Y422597D01*
X415923Y422594D01*
X416015Y422587D01*
X416117Y422574D01*
X416225Y422558D01*
X416340Y422538D01*
X416461Y422512D01*
X416583Y422479D01*
X416704Y422440D01*
X416825Y422397D01*
X416943Y422344D01*
X417052Y422282D01*
X417157Y422213D01*
X417163Y422210D01*
X417180Y422194D01*
X417206Y422174D01*
X417242Y422141D01*
X417284Y422102D01*
X417331Y422053D01*
X417383Y421994D01*
X417439Y421931D01*
X417498Y421856D01*
X417554Y421774D01*
X417613Y421685D01*
X417665Y421587D01*
X417718Y421482D01*
X417763Y421370D01*
X417803Y421252D01*
X417836Y421124D01*
X416825Y420937D01*
Y420941D01*
X416819Y420954D01*
X416812Y420973D01*
X416802Y421000D01*
X416792Y421029D01*
X416776Y421065D01*
X416756Y421105D01*
X416734Y421151D01*
X416707Y421197D01*
X416681Y421243D01*
X416645Y421292D01*
X416609Y421341D01*
X416570Y421387D01*
X416524Y421436D01*
X416474Y421479D01*
X416422Y421521D01*
X416419Y421524D01*
X416409Y421531D01*
X416392Y421541D01*
X416369Y421554D01*
X416340Y421570D01*
X416307Y421590D01*
X416268Y421610D01*
X416222Y421629D01*
X416169Y421649D01*
X416114Y421669D01*
X416054Y421689D01*
X415989Y421705D01*
X415920Y421718D01*
X415848Y421728D01*
X415772Y421735D01*
X415691Y421738D01*
X415661D01*
X415625Y421735D01*
X415579Y421731D01*
X415523Y421725D01*
X415458Y421715D01*
X415385Y421702D01*
X415307Y421685D01*
X415225Y421662D01*
X415136Y421636D01*
X415048Y421600D01*
X414959Y421561D01*
X414871Y421511D01*
X414785Y421456D01*
X414703Y421390D01*
X414628Y421315D01*
X414625Y421311D01*
X414611Y421295D01*
X414592Y421269D01*
X414565Y421236D01*
X414536Y421190D01*
X414503Y421138D01*
X414467Y421072D01*
X414431Y421000D01*
X414395Y420915D01*
X414359Y420823D01*
X414326Y420718D01*
X414296Y420606D01*
X414270Y420485D01*
X414251Y420350D01*
X414237Y420209D01*
X414234Y420058D01*
Y420055D01*
Y420049D01*
Y420035D01*
Y420019D01*
Y419999D01*
X414237Y419973D01*
Y419944D01*
X414241Y419911D01*
X414244Y419875D01*
X414247Y419835D01*
X414254Y419750D01*
X414267Y419655D01*
X414283Y419553D01*
X414306Y419445D01*
X414332Y419334D01*
X414365Y419222D01*
X414405Y419110D01*
X414447Y419002D01*
X414503Y418897D01*
X414565Y418799D01*
X414634Y418710D01*
X414638Y418707D01*
X414654Y418691D01*
X414677Y418668D01*
X414707Y418641D01*
X414746Y418605D01*
X414795Y418569D01*
X414851Y418530D01*
X414916Y418487D01*
X414985Y418445D01*
X415067Y418405D01*
X415153Y418369D01*
X415244Y418333D01*
X415343Y418307D01*
X415451Y418284D01*
X415562Y418271D01*
X415681Y418264D01*
X415713D01*
X415736Y418267D01*
X415766D01*
X415799Y418271D01*
X415838Y418274D01*
X415881Y418281D01*
X415927Y418287D01*
X415976Y418294D01*
X416084Y418317D01*
X416202Y418346D01*
X416320Y418389D01*
X416324D01*
X416333Y418395D01*
X416353Y418402D01*
X416373Y418412D01*
X416402Y418425D01*
X416435Y418438D01*
X416471Y418455D01*
X416510Y418474D01*
X416596Y418517D01*
X416691Y418569D01*
X416783Y418628D01*
X416875Y418694D01*
Y419334D01*
X415707D01*
Y420183D01*
X417901D01*
Y418172D01*
X417898Y418169D01*
X417888Y418159D01*
X417868Y418143D01*
X417842Y418120D01*
X417809Y418094D01*
X417770Y418061D01*
X417721Y418028D01*
X417665Y417989D01*
X417603Y417946D01*
X417534Y417903D01*
X417458Y417858D01*
X417376Y417812D01*
X417284Y417766D01*
X417189Y417720D01*
X417085Y417674D01*
X416973Y417628D01*
X416970D01*
X416966Y417625D01*
X416957Y417621D01*
X416947Y417618D01*
X416914Y417605D01*
X416868Y417592D01*
X416812Y417575D01*
X416750Y417556D01*
X416675Y417533D01*
X416593Y417513D01*
X416504Y417490D01*
X416405Y417467D01*
X416307Y417448D01*
X416199Y417431D01*
X416091Y417418D01*
X415976Y417405D01*
X415861Y417398D01*
X415746Y417395D01*
X415691D01*
X415671Y417398D01*
X415641D01*
X415612Y417402D01*
X415543Y417405D01*
X415464Y417411D01*
X415376Y417421D01*
X415277Y417438D01*
X415172Y417454D01*
X415061Y417477D01*
X414946Y417503D01*
X414828Y417536D01*
X414710Y417572D01*
X414595Y417618D01*
X414477Y417667D01*
X414365Y417726D01*
X414359Y417730D01*
X414339Y417743D01*
X414310Y417762D01*
X414270Y417789D01*
X414221Y417821D01*
X414165Y417864D01*
X414103Y417913D01*
X414034Y417969D01*
X413965Y418031D01*
X413890Y418104D01*
X413818Y418182D01*
X413745Y418267D01*
X413673Y418359D01*
X413604Y418458D01*
X413539Y418563D01*
X413480Y418674D01*
Y418678D01*
X413477Y418681D01*
X413473Y418691D01*
X413467Y418704D01*
X413453Y418737D01*
X413434Y418783D01*
X413411Y418838D01*
X413388Y418907D01*
X413358Y418986D01*
X413332Y419074D01*
X413306Y419170D01*
X413280Y419275D01*
X413253Y419386D01*
X413231Y419501D01*
X413211Y419625D01*
X413198Y419753D01*
X413188Y419885D01*
X413184Y420019D01*
Y420022D01*
Y420029D01*
Y420039D01*
Y420055D01*
Y420072D01*
X413188Y420094D01*
Y420121D01*
X413191Y420150D01*
X413194Y420219D01*
X413201Y420301D01*
X413211Y420390D01*
X413227Y420488D01*
X413244Y420596D01*
X413267Y420708D01*
X413293Y420823D01*
X413326Y420941D01*
X413362Y421062D01*
X413408Y421180D01*
X413457Y421302D01*
X413516Y421416D01*
Y421420D01*
X413519Y421423D01*
X413532Y421443D01*
X413552Y421475D01*
X413578Y421518D01*
X413611Y421567D01*
X413654Y421626D01*
X413703Y421692D01*
X413762Y421764D01*
X413824Y421839D01*
X413896Y421915D01*
X413978Y421994D01*
X414064Y422072D01*
X414159Y422148D01*
X414260Y422223D01*
X414369Y422292D01*
X414483Y422358D01*
X414490Y422361D01*
X414506Y422367D01*
X414533Y422381D01*
X414572Y422397D01*
X414618Y422417D01*
X414674Y422436D01*
X414743Y422459D01*
X414818Y422482D01*
X414900Y422505D01*
X414992Y422528D01*
X415090Y422548D01*
X415199Y422568D01*
X415310Y422584D01*
X415431Y422597D01*
X415559Y422604D01*
X415691Y422607D01*
X415753D01*
X415779Y422604D01*
D02*
G37*
G36*
X410518Y422518D02*
X410603D01*
X410695Y422515D01*
X410793Y422512D01*
X410895Y422509D01*
X410997Y422502D01*
X411098Y422499D01*
X411197Y422489D01*
X411289Y422482D01*
X411371Y422472D01*
X411446Y422459D01*
X411476Y422453D01*
X411505Y422446D01*
X411512D01*
X411525Y422440D01*
X411548Y422433D01*
X411577Y422423D01*
X411613Y422407D01*
X411656Y422391D01*
X411705Y422367D01*
X411758Y422341D01*
X411813Y422312D01*
X411872Y422276D01*
X411932Y422233D01*
X411994Y422190D01*
X412056Y422138D01*
X412115Y422082D01*
X412174Y422020D01*
X412230Y421951D01*
X412233Y421948D01*
X412243Y421935D01*
X412256Y421912D01*
X412276Y421882D01*
X412299Y421846D01*
X412325Y421800D01*
X412351Y421748D01*
X412378Y421689D01*
X412404Y421620D01*
X412433Y421544D01*
X412456Y421465D01*
X412479Y421377D01*
X412499Y421285D01*
X412512Y421187D01*
X412522Y421082D01*
X412525Y420970D01*
Y420964D01*
Y420951D01*
Y420924D01*
X412522Y420892D01*
X412519Y420852D01*
X412515Y420806D01*
X412512Y420754D01*
X412506Y420698D01*
X412496Y420639D01*
X412483Y420573D01*
X412453Y420442D01*
X412433Y420377D01*
X412410Y420311D01*
X412384Y420249D01*
X412355Y420186D01*
X412351Y420183D01*
X412348Y420173D01*
X412338Y420157D01*
X412325Y420134D01*
X412309Y420108D01*
X412289Y420078D01*
X412266Y420042D01*
X412240Y420006D01*
X412178Y419927D01*
X412102Y419845D01*
X412020Y419763D01*
X411925Y419691D01*
X411922Y419688D01*
X411912Y419685D01*
X411899Y419675D01*
X411879Y419662D01*
X411856Y419648D01*
X411830Y419632D01*
X411797Y419612D01*
X411761Y419593D01*
X411682Y419553D01*
X411594Y419514D01*
X411499Y419481D01*
X411400Y419455D01*
X411397D01*
X411384Y419452D01*
X411361Y419448D01*
X411331Y419445D01*
X411295Y419439D01*
X411249Y419432D01*
X411194Y419425D01*
X411131Y419419D01*
X411059Y419412D01*
X410980Y419406D01*
X410895Y419399D01*
X410800Y419393D01*
X410698Y419389D01*
X410587Y419386D01*
X410469Y419383D01*
X409678D01*
Y417480D01*
X408661D01*
Y422522D01*
X410446D01*
X410518Y422518D01*
D02*
G37*
G36*
X415779Y412604D02*
X415812D01*
X415845Y412600D01*
X415884Y412597D01*
X415923Y412594D01*
X416015Y412587D01*
X416117Y412574D01*
X416225Y412558D01*
X416340Y412538D01*
X416461Y412512D01*
X416583Y412479D01*
X416704Y412440D01*
X416825Y412397D01*
X416943Y412345D01*
X417052Y412282D01*
X417157Y412213D01*
X417163Y412210D01*
X417180Y412194D01*
X417206Y412174D01*
X417242Y412141D01*
X417284Y412102D01*
X417331Y412053D01*
X417383Y411994D01*
X417439Y411931D01*
X417498Y411856D01*
X417554Y411774D01*
X417613Y411685D01*
X417665Y411587D01*
X417718Y411482D01*
X417763Y411370D01*
X417803Y411252D01*
X417836Y411124D01*
X416825Y410937D01*
Y410941D01*
X416819Y410954D01*
X416812Y410974D01*
X416802Y411000D01*
X416792Y411029D01*
X416776Y411065D01*
X416756Y411105D01*
X416734Y411151D01*
X416707Y411197D01*
X416681Y411242D01*
X416645Y411292D01*
X416609Y411341D01*
X416570Y411387D01*
X416524Y411436D01*
X416474Y411479D01*
X416422Y411521D01*
X416419Y411524D01*
X416409Y411531D01*
X416392Y411541D01*
X416369Y411554D01*
X416340Y411571D01*
X416307Y411590D01*
X416268Y411610D01*
X416222Y411629D01*
X416169Y411649D01*
X416114Y411669D01*
X416054Y411689D01*
X415989Y411705D01*
X415920Y411718D01*
X415848Y411728D01*
X415772Y411734D01*
X415691Y411738D01*
X415661D01*
X415625Y411734D01*
X415579Y411731D01*
X415523Y411725D01*
X415458Y411715D01*
X415385Y411702D01*
X415307Y411685D01*
X415225Y411662D01*
X415136Y411636D01*
X415048Y411600D01*
X414959Y411561D01*
X414871Y411511D01*
X414785Y411456D01*
X414703Y411390D01*
X414628Y411315D01*
X414625Y411311D01*
X414611Y411295D01*
X414592Y411269D01*
X414565Y411236D01*
X414536Y411190D01*
X414503Y411137D01*
X414467Y411072D01*
X414431Y411000D01*
X414395Y410915D01*
X414359Y410823D01*
X414326Y410718D01*
X414296Y410606D01*
X414270Y410485D01*
X414251Y410350D01*
X414237Y410209D01*
X414234Y410058D01*
Y410055D01*
Y410048D01*
Y410035D01*
Y410019D01*
Y409999D01*
X414237Y409973D01*
Y409944D01*
X414241Y409911D01*
X414244Y409875D01*
X414247Y409835D01*
X414254Y409750D01*
X414267Y409655D01*
X414283Y409553D01*
X414306Y409445D01*
X414332Y409334D01*
X414365Y409222D01*
X414405Y409110D01*
X414447Y409002D01*
X414503Y408897D01*
X414565Y408799D01*
X414634Y408710D01*
X414638Y408707D01*
X414654Y408691D01*
X414677Y408668D01*
X414707Y408641D01*
X414746Y408605D01*
X414795Y408569D01*
X414851Y408530D01*
X414916Y408487D01*
X414985Y408445D01*
X415067Y408405D01*
X415153Y408369D01*
X415244Y408333D01*
X415343Y408307D01*
X415451Y408284D01*
X415562Y408271D01*
X415681Y408264D01*
X415713D01*
X415736Y408267D01*
X415766D01*
X415799Y408271D01*
X415838Y408274D01*
X415881Y408281D01*
X415927Y408287D01*
X415976Y408294D01*
X416084Y408317D01*
X416202Y408346D01*
X416320Y408389D01*
X416324D01*
X416333Y408395D01*
X416353Y408402D01*
X416373Y408412D01*
X416402Y408425D01*
X416435Y408438D01*
X416471Y408455D01*
X416510Y408474D01*
X416596Y408517D01*
X416691Y408569D01*
X416783Y408628D01*
X416875Y408694D01*
Y409334D01*
X415707D01*
Y410183D01*
X417901D01*
Y408172D01*
X417898Y408169D01*
X417888Y408159D01*
X417868Y408143D01*
X417842Y408120D01*
X417809Y408094D01*
X417770Y408061D01*
X417721Y408028D01*
X417665Y407989D01*
X417603Y407946D01*
X417534Y407903D01*
X417458Y407858D01*
X417376Y407812D01*
X417284Y407766D01*
X417189Y407720D01*
X417085Y407674D01*
X416973Y407628D01*
X416970D01*
X416966Y407625D01*
X416957Y407621D01*
X416947Y407618D01*
X416914Y407605D01*
X416868Y407592D01*
X416812Y407575D01*
X416750Y407556D01*
X416675Y407533D01*
X416593Y407513D01*
X416504Y407490D01*
X416405Y407467D01*
X416307Y407447D01*
X416199Y407431D01*
X416091Y407418D01*
X415976Y407405D01*
X415861Y407398D01*
X415746Y407395D01*
X415691D01*
X415671Y407398D01*
X415641D01*
X415612Y407402D01*
X415543Y407405D01*
X415464Y407411D01*
X415376Y407421D01*
X415277Y407438D01*
X415172Y407454D01*
X415061Y407477D01*
X414946Y407503D01*
X414828Y407536D01*
X414710Y407572D01*
X414595Y407618D01*
X414477Y407667D01*
X414365Y407726D01*
X414359Y407730D01*
X414339Y407743D01*
X414310Y407762D01*
X414270Y407789D01*
X414221Y407821D01*
X414165Y407864D01*
X414103Y407913D01*
X414034Y407969D01*
X413965Y408031D01*
X413890Y408104D01*
X413818Y408182D01*
X413745Y408267D01*
X413673Y408359D01*
X413604Y408458D01*
X413539Y408563D01*
X413480Y408674D01*
Y408677D01*
X413477Y408681D01*
X413473Y408691D01*
X413467Y408704D01*
X413453Y408737D01*
X413434Y408782D01*
X413411Y408838D01*
X413388Y408907D01*
X413358Y408986D01*
X413332Y409074D01*
X413306Y409169D01*
X413280Y409274D01*
X413253Y409386D01*
X413231Y409501D01*
X413211Y409625D01*
X413198Y409753D01*
X413188Y409885D01*
X413184Y410019D01*
Y410022D01*
Y410029D01*
Y410039D01*
Y410055D01*
Y410072D01*
X413188Y410094D01*
Y410121D01*
X413191Y410150D01*
X413194Y410219D01*
X413201Y410301D01*
X413211Y410390D01*
X413227Y410488D01*
X413244Y410596D01*
X413267Y410708D01*
X413293Y410823D01*
X413326Y410941D01*
X413362Y411062D01*
X413408Y411180D01*
X413457Y411302D01*
X413516Y411416D01*
Y411420D01*
X413519Y411423D01*
X413532Y411443D01*
X413552Y411475D01*
X413578Y411518D01*
X413611Y411567D01*
X413654Y411626D01*
X413703Y411692D01*
X413762Y411764D01*
X413824Y411839D01*
X413896Y411915D01*
X413978Y411994D01*
X414064Y412072D01*
X414159Y412148D01*
X414260Y412223D01*
X414369Y412292D01*
X414483Y412358D01*
X414490Y412361D01*
X414506Y412367D01*
X414533Y412381D01*
X414572Y412397D01*
X414618Y412417D01*
X414674Y412436D01*
X414743Y412459D01*
X414818Y412482D01*
X414900Y412505D01*
X414992Y412528D01*
X415090Y412548D01*
X415199Y412568D01*
X415310Y412584D01*
X415431Y412597D01*
X415559Y412604D01*
X415691Y412607D01*
X415753D01*
X415779Y412604D01*
D02*
G37*
G36*
X421086D02*
X421112D01*
X421142Y412600D01*
X421178Y412597D01*
X421214Y412594D01*
X421257Y412591D01*
X421348Y412577D01*
X421447Y412561D01*
X421558Y412538D01*
X421676Y412509D01*
X421798Y412476D01*
X421922Y412430D01*
X422047Y412377D01*
X422172Y412315D01*
X422296Y412243D01*
X422414Y412158D01*
X422526Y412063D01*
X422529Y412059D01*
X422542Y412046D01*
X422559Y412030D01*
X422582Y412003D01*
X422611Y411967D01*
X422644Y411928D01*
X422680Y411879D01*
X422719Y411823D01*
X422762Y411761D01*
X422805Y411692D01*
X422847Y411616D01*
X422890Y411531D01*
X422929Y411443D01*
X422969Y411344D01*
X423008Y411242D01*
X423041Y411131D01*
X422034Y410891D01*
Y410895D01*
X422031Y410908D01*
X422024Y410931D01*
X422014Y410957D01*
X422005Y410990D01*
X421991Y411029D01*
X421975Y411072D01*
X421955Y411118D01*
X421932Y411167D01*
X421903Y411216D01*
X421873Y411269D01*
X421840Y411318D01*
X421801Y411370D01*
X421759Y411420D01*
X421712Y411469D01*
X421660Y411511D01*
X421657Y411515D01*
X421647Y411521D01*
X421630Y411531D01*
X421611Y411548D01*
X421581Y411564D01*
X421549Y411584D01*
X421513Y411603D01*
X421470Y411626D01*
X421421Y411646D01*
X421368Y411666D01*
X421312Y411685D01*
X421250Y411702D01*
X421184Y411718D01*
X421119Y411728D01*
X421047Y411734D01*
X420971Y411738D01*
X420945D01*
X420919Y411734D01*
X420879Y411731D01*
X420830Y411725D01*
X420775Y411718D01*
X420715Y411705D01*
X420646Y411689D01*
X420578Y411666D01*
X420502Y411639D01*
X420427Y411607D01*
X420351Y411567D01*
X420273Y411521D01*
X420200Y411469D01*
X420128Y411407D01*
X420059Y411334D01*
X420056Y411331D01*
X420043Y411315D01*
X420027Y411292D01*
X420004Y411259D01*
X419977Y411213D01*
X419948Y411161D01*
X419918Y411095D01*
X419886Y411023D01*
X419853Y410937D01*
X419823Y410839D01*
X419794Y410734D01*
X419768Y410616D01*
X419744Y410488D01*
X419728Y410347D01*
X419715Y410196D01*
X419712Y410032D01*
Y410029D01*
Y410022D01*
Y410009D01*
Y409990D01*
Y409967D01*
X419715Y409940D01*
Y409911D01*
X419718Y409875D01*
Y409839D01*
X419722Y409799D01*
X419731Y409707D01*
X419741Y409609D01*
X419754Y409504D01*
X419774Y409392D01*
X419797Y409278D01*
X419823Y409163D01*
X419856Y409051D01*
X419895Y408943D01*
X419941Y408845D01*
X419997Y408750D01*
X420056Y408668D01*
X420059Y408664D01*
X420073Y408651D01*
X420092Y408632D01*
X420119Y408605D01*
X420154Y408576D01*
X420194Y408540D01*
X420243Y408504D01*
X420299Y408468D01*
X420358Y408428D01*
X420427Y408392D01*
X420499Y408359D01*
X420581Y408326D01*
X420663Y408300D01*
X420755Y408281D01*
X420850Y408267D01*
X420952Y408264D01*
X420968D01*
X420991Y408267D01*
X421021D01*
X421053Y408271D01*
X421096Y408277D01*
X421142Y408287D01*
X421191Y408297D01*
X421243Y408310D01*
X421299Y408326D01*
X421355Y408346D01*
X421414Y408372D01*
X421473Y408402D01*
X421532Y408435D01*
X421591Y408474D01*
X421647Y408520D01*
X421650Y408523D01*
X421660Y408533D01*
X421676Y408546D01*
X421696Y408569D01*
X421719Y408599D01*
X421749Y408632D01*
X421778Y408671D01*
X421811Y408720D01*
X421844Y408773D01*
X421880Y408832D01*
X421916Y408901D01*
X421949Y408973D01*
X421985Y409051D01*
X422014Y409140D01*
X422044Y409232D01*
X422070Y409334D01*
X423057Y409019D01*
Y409015D01*
X423054Y409009D01*
X423051Y408999D01*
X423047Y408983D01*
X423041Y408963D01*
X423034Y408940D01*
X423025Y408914D01*
X423015Y408884D01*
X422989Y408815D01*
X422956Y408737D01*
X422920Y408651D01*
X422877Y408556D01*
X422828Y408458D01*
X422772Y408359D01*
X422710Y408258D01*
X422641Y408156D01*
X422565Y408058D01*
X422483Y407963D01*
X422395Y407874D01*
X422300Y407795D01*
X422293Y407792D01*
X422277Y407779D01*
X422247Y407759D01*
X422204Y407733D01*
X422152Y407703D01*
X422090Y407667D01*
X422018Y407631D01*
X421936Y407595D01*
X421844Y407559D01*
X421742Y407523D01*
X421630Y407487D01*
X421513Y407457D01*
X421384Y407431D01*
X421250Y407411D01*
X421109Y407398D01*
X420961Y407395D01*
X420916D01*
X420892Y407398D01*
X420863D01*
X420830Y407402D01*
X420794Y407405D01*
X420755Y407411D01*
X420709Y407415D01*
X420660Y407424D01*
X420611Y407431D01*
X420499Y407454D01*
X420378Y407480D01*
X420250Y407516D01*
X420119Y407562D01*
X419981Y407618D01*
X419840Y407684D01*
X419702Y407762D01*
X419633Y407808D01*
X419567Y407854D01*
X419498Y407907D01*
X419433Y407959D01*
X419371Y408018D01*
X419308Y408080D01*
X419305Y408084D01*
X419302Y408087D01*
X419292Y408097D01*
X419282Y408113D01*
X419266Y408130D01*
X419249Y408153D01*
X419230Y408176D01*
X419207Y408205D01*
X419184Y408238D01*
X419157Y408277D01*
X419131Y408317D01*
X419105Y408359D01*
X419075Y408409D01*
X419046Y408458D01*
X419016Y408513D01*
X418987Y408573D01*
X418954Y408635D01*
X418925Y408701D01*
X418895Y408769D01*
X418865Y408842D01*
X418839Y408917D01*
X418813Y408996D01*
X418787Y409078D01*
X418764Y409163D01*
X418721Y409340D01*
X418688Y409534D01*
X418679Y409635D01*
X418669Y409740D01*
X418665Y409845D01*
X418662Y409957D01*
Y409960D01*
Y409970D01*
Y409990D01*
Y410012D01*
X418665Y410042D01*
Y410078D01*
X418669Y410117D01*
X418672Y410163D01*
X418675Y410216D01*
X418682Y410272D01*
X418688Y410331D01*
X418695Y410393D01*
X418705Y410459D01*
X418718Y410527D01*
X418744Y410675D01*
X418777Y410829D01*
X418820Y410987D01*
X418872Y411151D01*
X418938Y411311D01*
X419010Y411472D01*
X419053Y411551D01*
X419098Y411629D01*
X419144Y411702D01*
X419197Y411774D01*
X419252Y411846D01*
X419312Y411912D01*
X419315Y411915D01*
X419318Y411918D01*
X419328Y411928D01*
X419341Y411941D01*
X419357Y411958D01*
X419381Y411977D01*
X419403Y411997D01*
X419430Y412020D01*
X419462Y412046D01*
X419495Y412072D01*
X419535Y412102D01*
X419574Y412131D01*
X419620Y412164D01*
X419666Y412194D01*
X419771Y412259D01*
X419889Y412325D01*
X420017Y412387D01*
X420158Y412446D01*
X420309Y412499D01*
X420473Y412541D01*
X420646Y412577D01*
X420738Y412591D01*
X420830Y412600D01*
X420925Y412604D01*
X421024Y412607D01*
X421063D01*
X421086Y412604D01*
D02*
G37*
G36*
X420857Y422518D02*
X420916D01*
X420984Y422515D01*
X421057Y422509D01*
X421132Y422505D01*
X421211Y422499D01*
X421371Y422482D01*
X421447Y422469D01*
X421522Y422459D01*
X421594Y422443D01*
X421660Y422427D01*
X421667D01*
X421680Y422420D01*
X421703Y422413D01*
X421735Y422400D01*
X421772Y422387D01*
X421817Y422367D01*
X421867Y422344D01*
X421922Y422318D01*
X421978Y422289D01*
X422041Y422256D01*
X422103Y422217D01*
X422165Y422174D01*
X422231Y422128D01*
X422296Y422076D01*
X422359Y422020D01*
X422418Y421961D01*
X422421Y421957D01*
X422431Y421944D01*
X422447Y421928D01*
X422470Y421902D01*
X422497Y421869D01*
X422526Y421830D01*
X422562Y421784D01*
X422598Y421735D01*
X422634Y421675D01*
X422677Y421613D01*
X422716Y421548D01*
X422756Y421475D01*
X422795Y421400D01*
X422831Y421318D01*
X422867Y421233D01*
X422900Y421144D01*
X422903Y421138D01*
X422906Y421121D01*
X422916Y421095D01*
X422926Y421059D01*
X422939Y421010D01*
X422952Y420954D01*
X422969Y420888D01*
X422985Y420816D01*
X422998Y420731D01*
X423015Y420642D01*
X423028Y420544D01*
X423041Y420439D01*
X423051Y420327D01*
X423061Y420209D01*
X423064Y420085D01*
X423067Y419953D01*
Y419950D01*
Y419947D01*
Y419937D01*
Y419927D01*
Y419894D01*
X423064Y419848D01*
Y419796D01*
X423061Y419734D01*
X423054Y419662D01*
X423047Y419586D01*
X423041Y419504D01*
X423031Y419416D01*
X423002Y419238D01*
X422965Y419055D01*
X422939Y418963D01*
X422913Y418878D01*
X422910Y418871D01*
X422903Y418855D01*
X422893Y418825D01*
X422877Y418786D01*
X422857Y418740D01*
X422834Y418687D01*
X422805Y418625D01*
X422775Y418563D01*
X422739Y418491D01*
X422696Y418418D01*
X422654Y418346D01*
X422605Y418271D01*
X422552Y418199D01*
X422497Y418126D01*
X422437Y418054D01*
X422372Y417989D01*
X422368Y417985D01*
X422359Y417979D01*
X422346Y417963D01*
X422323Y417946D01*
X422296Y417923D01*
X422264Y417900D01*
X422227Y417871D01*
X422182Y417841D01*
X422136Y417808D01*
X422080Y417775D01*
X422021Y417743D01*
X421958Y417710D01*
X421890Y417677D01*
X421817Y417644D01*
X421739Y417615D01*
X421657Y417585D01*
X421654D01*
X421640Y417582D01*
X421621Y417575D01*
X421594Y417569D01*
X421562Y417562D01*
X421519Y417553D01*
X421473Y417543D01*
X421417Y417533D01*
X421355Y417523D01*
X421289Y417513D01*
X421214Y417503D01*
X421135Y417497D01*
X421047Y417490D01*
X420955Y417484D01*
X420857Y417480D01*
X418839D01*
Y422522D01*
X420804D01*
X420857Y422518D01*
D02*
G37*
G36*
X415891Y442518D02*
X415950D01*
X416018Y442515D01*
X416091Y442509D01*
X416166Y442505D01*
X416245Y442499D01*
X416405Y442482D01*
X416481Y442469D01*
X416556Y442459D01*
X416629Y442443D01*
X416694Y442427D01*
X416701D01*
X416714Y442420D01*
X416737Y442413D01*
X416770Y442400D01*
X416806Y442387D01*
X416852Y442368D01*
X416901Y442345D01*
X416957Y442318D01*
X417012Y442289D01*
X417075Y442256D01*
X417137Y442217D01*
X417199Y442174D01*
X417265Y442128D01*
X417331Y442076D01*
X417393Y442020D01*
X417452Y441961D01*
X417455Y441958D01*
X417465Y441944D01*
X417481Y441928D01*
X417504Y441902D01*
X417530Y441869D01*
X417560Y441830D01*
X417596Y441784D01*
X417632Y441735D01*
X417668Y441675D01*
X417711Y441613D01*
X417750Y441547D01*
X417790Y441475D01*
X417829Y441400D01*
X417865Y441318D01*
X417901Y441233D01*
X417934Y441144D01*
X417937Y441138D01*
X417941Y441121D01*
X417950Y441095D01*
X417960Y441059D01*
X417973Y441010D01*
X417986Y440954D01*
X418003Y440888D01*
X418019Y440816D01*
X418032Y440731D01*
X418049Y440642D01*
X418062Y440544D01*
X418075Y440439D01*
X418085Y440327D01*
X418095Y440209D01*
X418098Y440085D01*
X418101Y439953D01*
Y439950D01*
Y439947D01*
Y439937D01*
Y439927D01*
Y439894D01*
X418098Y439849D01*
Y439796D01*
X418095Y439734D01*
X418088Y439662D01*
X418082Y439586D01*
X418075Y439504D01*
X418065Y439416D01*
X418036Y439238D01*
X418000Y439055D01*
X417973Y438963D01*
X417947Y438878D01*
X417944Y438871D01*
X417937Y438855D01*
X417927Y438825D01*
X417911Y438786D01*
X417891Y438740D01*
X417868Y438687D01*
X417839Y438625D01*
X417809Y438563D01*
X417773Y438490D01*
X417731Y438418D01*
X417688Y438346D01*
X417639Y438271D01*
X417586Y438199D01*
X417530Y438127D01*
X417472Y438054D01*
X417406Y437989D01*
X417403Y437985D01*
X417393Y437979D01*
X417380Y437962D01*
X417357Y437946D01*
X417331Y437923D01*
X417298Y437900D01*
X417262Y437871D01*
X417216Y437841D01*
X417170Y437808D01*
X417114Y437776D01*
X417055Y437743D01*
X416993Y437710D01*
X416924Y437677D01*
X416852Y437644D01*
X416773Y437615D01*
X416691Y437585D01*
X416688D01*
X416675Y437582D01*
X416655Y437575D01*
X416629Y437569D01*
X416596Y437562D01*
X416553Y437552D01*
X416507Y437543D01*
X416451Y437533D01*
X416389Y437523D01*
X416324Y437513D01*
X416248Y437503D01*
X416169Y437497D01*
X416081Y437490D01*
X415989Y437484D01*
X415891Y437480D01*
X413873D01*
Y442522D01*
X415838D01*
X415891Y442518D01*
D02*
G37*
G36*
X413532Y447480D02*
X412584D01*
Y451449D01*
X411584Y447480D01*
X410603D01*
X409606Y451449D01*
Y447480D01*
X408661D01*
Y452522D01*
X410183D01*
X411098Y449081D01*
X412004Y452522D01*
X413532D01*
Y447480D01*
D02*
G37*
G36*
X426209Y452518D02*
X426278D01*
X426354Y452515D01*
X426439Y452512D01*
X426528Y452505D01*
X426623Y452499D01*
X426721Y452489D01*
X426915Y452463D01*
X427010Y452450D01*
X427098Y452430D01*
X427180Y452407D01*
X427252Y452384D01*
X427256D01*
X427269Y452377D01*
X427288Y452371D01*
X427315Y452358D01*
X427344Y452341D01*
X427380Y452322D01*
X427420Y452299D01*
X427462Y452272D01*
X427508Y452243D01*
X427558Y452207D01*
X427607Y452167D01*
X427656Y452125D01*
X427705Y452076D01*
X427751Y452023D01*
X427797Y451964D01*
X427840Y451902D01*
X427843Y451898D01*
X427849Y451885D01*
X427859Y451866D01*
X427876Y451839D01*
X427892Y451807D01*
X427909Y451767D01*
X427928Y451725D01*
X427951Y451672D01*
X427971Y451616D01*
X427990Y451554D01*
X428007Y451488D01*
X428026Y451420D01*
X428040Y451347D01*
X428050Y451269D01*
X428056Y451190D01*
X428059Y451108D01*
Y451101D01*
Y451082D01*
X428056Y451052D01*
X428053Y451013D01*
X428050Y450964D01*
X428043Y450908D01*
X428030Y450846D01*
X428017Y450777D01*
X428000Y450705D01*
X427977Y450629D01*
X427951Y450550D01*
X427918Y450472D01*
X427879Y450393D01*
X427836Y450317D01*
X427784Y450242D01*
X427725Y450170D01*
X427722Y450167D01*
X427708Y450153D01*
X427689Y450134D01*
X427663Y450111D01*
X427626Y450081D01*
X427584Y450048D01*
X427534Y450012D01*
X427476Y449973D01*
X427410Y449934D01*
X427334Y449894D01*
X427252Y449855D01*
X427164Y449816D01*
X427066Y449783D01*
X426961Y449750D01*
X426849Y449724D01*
X426728Y449704D01*
X426731Y449701D01*
X426741Y449694D01*
X426760Y449684D01*
X426783Y449671D01*
X426810Y449652D01*
X426842Y449632D01*
X426882Y449606D01*
X426921Y449579D01*
X427006Y449517D01*
X427098Y449445D01*
X427187Y449366D01*
X427272Y449281D01*
X427275Y449278D01*
X427282Y449271D01*
X427295Y449255D01*
X427312Y449235D01*
X427334Y449209D01*
X427361Y449176D01*
X427390Y449137D01*
X427426Y449094D01*
X427466Y449038D01*
X427508Y448979D01*
X427558Y448914D01*
X427610Y448838D01*
X427663Y448756D01*
X427725Y448664D01*
X427787Y448569D01*
X427853Y448461D01*
X428469Y447480D01*
X427252D01*
X426514Y448576D01*
Y448579D01*
X426511Y448582D01*
X426498Y448602D01*
X426478Y448632D01*
X426452Y448671D01*
X426419Y448717D01*
X426383Y448769D01*
X426344Y448828D01*
X426301Y448887D01*
X426213Y449015D01*
X426167Y449078D01*
X426124Y449137D01*
X426082Y449192D01*
X426045Y449242D01*
X426009Y449284D01*
X425980Y449317D01*
Y449320D01*
X425973Y449324D01*
X425954Y449343D01*
X425924Y449370D01*
X425888Y449402D01*
X425842Y449435D01*
X425790Y449471D01*
X425731Y449501D01*
X425671Y449527D01*
X425668D01*
X425665Y449530D01*
X425655Y449534D01*
X425642Y449537D01*
X425622Y449540D01*
X425603Y449543D01*
X425576Y449550D01*
X425547Y449556D01*
X425514Y449560D01*
X425475Y449566D01*
X425435Y449570D01*
X425389Y449573D01*
X425337Y449576D01*
X425281Y449579D01*
X425222Y449583D01*
X424953D01*
Y447480D01*
X423936D01*
Y452522D01*
X426180D01*
X426209Y452518D01*
D02*
G37*
G36*
X416786Y452604D02*
X416812D01*
X416842Y452600D01*
X416878Y452597D01*
X416914Y452594D01*
X416957Y452591D01*
X417048Y452577D01*
X417147Y452561D01*
X417258Y452538D01*
X417376Y452509D01*
X417498Y452476D01*
X417622Y452430D01*
X417747Y452377D01*
X417872Y452315D01*
X417996Y452243D01*
X418114Y452158D01*
X418226Y452063D01*
X418229Y452059D01*
X418242Y452046D01*
X418259Y452030D01*
X418282Y452003D01*
X418311Y451967D01*
X418344Y451928D01*
X418380Y451879D01*
X418419Y451823D01*
X418462Y451761D01*
X418505Y451692D01*
X418547Y451616D01*
X418590Y451531D01*
X418629Y451443D01*
X418669Y451344D01*
X418708Y451242D01*
X418741Y451131D01*
X417734Y450891D01*
Y450895D01*
X417731Y450908D01*
X417724Y450931D01*
X417714Y450957D01*
X417704Y450990D01*
X417691Y451029D01*
X417675Y451072D01*
X417655Y451118D01*
X417632Y451167D01*
X417603Y451216D01*
X417573Y451269D01*
X417540Y451318D01*
X417501Y451370D01*
X417458Y451420D01*
X417413Y451469D01*
X417360Y451511D01*
X417357Y451515D01*
X417347Y451521D01*
X417331Y451531D01*
X417311Y451547D01*
X417281Y451564D01*
X417248Y451584D01*
X417212Y451603D01*
X417170Y451626D01*
X417121Y451646D01*
X417068Y451666D01*
X417012Y451685D01*
X416950Y451702D01*
X416884Y451718D01*
X416819Y451728D01*
X416747Y451734D01*
X416671Y451738D01*
X416645D01*
X416619Y451734D01*
X416579Y451731D01*
X416530Y451725D01*
X416474Y451718D01*
X416415Y451705D01*
X416347Y451689D01*
X416278Y451666D01*
X416202Y451639D01*
X416127Y451607D01*
X416051Y451567D01*
X415973Y451521D01*
X415900Y451469D01*
X415828Y451406D01*
X415759Y451334D01*
X415756Y451331D01*
X415743Y451315D01*
X415727Y451292D01*
X415704Y451259D01*
X415677Y451213D01*
X415648Y451160D01*
X415618Y451095D01*
X415586Y451023D01*
X415553Y450937D01*
X415523Y450839D01*
X415494Y450734D01*
X415467Y450616D01*
X415445Y450488D01*
X415428Y450347D01*
X415415Y450196D01*
X415412Y450032D01*
Y450029D01*
Y450022D01*
Y450009D01*
Y449990D01*
Y449967D01*
X415415Y449940D01*
Y449911D01*
X415418Y449875D01*
Y449839D01*
X415421Y449799D01*
X415431Y449707D01*
X415441Y449609D01*
X415454Y449504D01*
X415474Y449393D01*
X415497Y449278D01*
X415523Y449163D01*
X415556Y449051D01*
X415595Y448943D01*
X415641Y448845D01*
X415697Y448750D01*
X415756Y448668D01*
X415759Y448664D01*
X415772Y448651D01*
X415792Y448632D01*
X415818Y448605D01*
X415855Y448576D01*
X415894Y448540D01*
X415943Y448504D01*
X415999Y448468D01*
X416058Y448428D01*
X416127Y448392D01*
X416199Y448359D01*
X416281Y448327D01*
X416363Y448300D01*
X416455Y448281D01*
X416550Y448268D01*
X416651Y448264D01*
X416668D01*
X416691Y448268D01*
X416720D01*
X416753Y448271D01*
X416796Y448277D01*
X416842Y448287D01*
X416891Y448297D01*
X416943Y448310D01*
X416999Y448327D01*
X417055Y448346D01*
X417114Y448373D01*
X417173Y448402D01*
X417232Y448435D01*
X417291Y448474D01*
X417347Y448520D01*
X417350Y448523D01*
X417360Y448533D01*
X417376Y448546D01*
X417396Y448569D01*
X417419Y448599D01*
X417449Y448632D01*
X417478Y448671D01*
X417511Y448720D01*
X417544Y448773D01*
X417580Y448832D01*
X417616Y448901D01*
X417649Y448973D01*
X417685Y449051D01*
X417714Y449140D01*
X417744Y449232D01*
X417770Y449333D01*
X418757Y449019D01*
Y449015D01*
X418754Y449009D01*
X418751Y448999D01*
X418747Y448982D01*
X418741Y448963D01*
X418734Y448940D01*
X418724Y448914D01*
X418715Y448884D01*
X418688Y448815D01*
X418656Y448736D01*
X418619Y448651D01*
X418577Y448556D01*
X418528Y448458D01*
X418472Y448359D01*
X418410Y448258D01*
X418341Y448156D01*
X418265Y448058D01*
X418183Y447963D01*
X418095Y447874D01*
X418000Y447795D01*
X417993Y447792D01*
X417977Y447779D01*
X417947Y447759D01*
X417905Y447733D01*
X417852Y447703D01*
X417790Y447667D01*
X417718Y447631D01*
X417635Y447595D01*
X417544Y447559D01*
X417442Y447523D01*
X417331Y447487D01*
X417212Y447457D01*
X417085Y447431D01*
X416950Y447411D01*
X416809Y447398D01*
X416661Y447395D01*
X416615D01*
X416593Y447398D01*
X416563D01*
X416530Y447402D01*
X416494Y447405D01*
X416455Y447411D01*
X416409Y447415D01*
X416360Y447425D01*
X416310Y447431D01*
X416199Y447454D01*
X416078Y447480D01*
X415950Y447516D01*
X415818Y447562D01*
X415681Y447618D01*
X415540Y447684D01*
X415402Y447762D01*
X415333Y447808D01*
X415267Y447854D01*
X415199Y447907D01*
X415133Y447959D01*
X415070Y448018D01*
X415008Y448081D01*
X415005Y448084D01*
X415002Y448087D01*
X414992Y448097D01*
X414982Y448113D01*
X414966Y448130D01*
X414949Y448153D01*
X414929Y448176D01*
X414907Y448205D01*
X414884Y448238D01*
X414857Y448277D01*
X414831Y448317D01*
X414805Y448359D01*
X414775Y448409D01*
X414746Y448458D01*
X414716Y448514D01*
X414687Y448572D01*
X414654Y448635D01*
X414625Y448701D01*
X414595Y448769D01*
X414565Y448841D01*
X414539Y448917D01*
X414513Y448996D01*
X414487Y449078D01*
X414464Y449163D01*
X414421Y449340D01*
X414388Y449534D01*
X414378Y449635D01*
X414369Y449740D01*
X414365Y449845D01*
X414362Y449957D01*
Y449960D01*
Y449970D01*
Y449990D01*
Y450012D01*
X414365Y450042D01*
Y450078D01*
X414369Y450117D01*
X414372Y450163D01*
X414375Y450216D01*
X414382Y450272D01*
X414388Y450331D01*
X414395Y450393D01*
X414405Y450459D01*
X414418Y450527D01*
X414444Y450675D01*
X414477Y450829D01*
X414520Y450987D01*
X414572Y451151D01*
X414638Y451311D01*
X414710Y451472D01*
X414752Y451551D01*
X414798Y451629D01*
X414844Y451702D01*
X414897Y451774D01*
X414953Y451846D01*
X415012Y451912D01*
X415015Y451915D01*
X415018Y451918D01*
X415028Y451928D01*
X415041Y451941D01*
X415057Y451958D01*
X415080Y451977D01*
X415103Y451997D01*
X415130Y452020D01*
X415162Y452046D01*
X415195Y452072D01*
X415235Y452102D01*
X415274Y452131D01*
X415320Y452164D01*
X415366Y452194D01*
X415471Y452259D01*
X415589Y452325D01*
X415717Y452387D01*
X415858Y452446D01*
X416009Y452499D01*
X416173Y452541D01*
X416347Y452577D01*
X416438Y452591D01*
X416530Y452600D01*
X416625Y452604D01*
X416724Y452607D01*
X416763D01*
X416786Y452604D01*
D02*
G37*
G36*
X413926Y397395D02*
X413217D01*
X414464Y402607D01*
X415189D01*
X413926Y397395D01*
D02*
G37*
G36*
X420676Y448330D02*
X423208D01*
Y447480D01*
X419656D01*
Y452482D01*
X420676D01*
Y448330D01*
D02*
G37*
G36*
X417941Y402604D02*
X417967D01*
X417996Y402600D01*
X418032Y402597D01*
X418069Y402594D01*
X418111Y402591D01*
X418203Y402577D01*
X418301Y402561D01*
X418413Y402538D01*
X418531Y402509D01*
X418652Y402476D01*
X418777Y402430D01*
X418902Y402377D01*
X419026Y402315D01*
X419151Y402243D01*
X419269Y402158D01*
X419381Y402063D01*
X419384Y402059D01*
X419397Y402046D01*
X419413Y402030D01*
X419436Y402003D01*
X419466Y401967D01*
X419498Y401928D01*
X419535Y401879D01*
X419574Y401823D01*
X419617Y401761D01*
X419659Y401692D01*
X419702Y401616D01*
X419744Y401531D01*
X419784Y401442D01*
X419823Y401344D01*
X419863Y401242D01*
X419895Y401131D01*
X418889Y400891D01*
Y400895D01*
X418885Y400908D01*
X418879Y400931D01*
X418869Y400957D01*
X418859Y400990D01*
X418846Y401029D01*
X418829Y401072D01*
X418810Y401118D01*
X418787Y401167D01*
X418757Y401216D01*
X418728Y401269D01*
X418695Y401318D01*
X418656Y401370D01*
X418613Y401420D01*
X418567Y401469D01*
X418514Y401511D01*
X418511Y401515D01*
X418501Y401521D01*
X418485Y401531D01*
X418465Y401547D01*
X418436Y401564D01*
X418403Y401584D01*
X418367Y401603D01*
X418324Y401626D01*
X418275Y401646D01*
X418223Y401666D01*
X418167Y401685D01*
X418105Y401702D01*
X418039Y401718D01*
X417973Y401728D01*
X417901Y401734D01*
X417826Y401738D01*
X417800D01*
X417773Y401734D01*
X417734Y401731D01*
X417685Y401725D01*
X417629Y401718D01*
X417570Y401705D01*
X417501Y401688D01*
X417432Y401666D01*
X417357Y401639D01*
X417281Y401607D01*
X417206Y401567D01*
X417127Y401521D01*
X417055Y401469D01*
X416983Y401406D01*
X416914Y401334D01*
X416911Y401331D01*
X416897Y401315D01*
X416881Y401292D01*
X416858Y401259D01*
X416832Y401213D01*
X416802Y401160D01*
X416773Y401095D01*
X416740Y401023D01*
X416707Y400937D01*
X416678Y400839D01*
X416648Y400734D01*
X416622Y400616D01*
X416599Y400488D01*
X416583Y400347D01*
X416570Y400196D01*
X416566Y400032D01*
Y400029D01*
Y400022D01*
Y400009D01*
Y399990D01*
Y399967D01*
X416570Y399940D01*
Y399911D01*
X416573Y399875D01*
Y399839D01*
X416576Y399799D01*
X416586Y399707D01*
X416596Y399609D01*
X416609Y399504D01*
X416629Y399393D01*
X416651Y399278D01*
X416678Y399163D01*
X416711Y399051D01*
X416750Y398943D01*
X416796Y398845D01*
X416852Y398750D01*
X416911Y398668D01*
X416914Y398664D01*
X416927Y398651D01*
X416947Y398632D01*
X416973Y398605D01*
X417009Y398576D01*
X417048Y398540D01*
X417098Y398504D01*
X417153Y398468D01*
X417212Y398428D01*
X417281Y398392D01*
X417353Y398359D01*
X417435Y398326D01*
X417517Y398300D01*
X417609Y398281D01*
X417704Y398268D01*
X417806Y398264D01*
X417823D01*
X417845Y398268D01*
X417875D01*
X417908Y398271D01*
X417950Y398277D01*
X417996Y398287D01*
X418046Y398297D01*
X418098Y398310D01*
X418154Y398326D01*
X418210Y398346D01*
X418268Y398373D01*
X418328Y398402D01*
X418387Y398435D01*
X418446Y398474D01*
X418501Y398520D01*
X418505Y398523D01*
X418514Y398533D01*
X418531Y398546D01*
X418551Y398569D01*
X418574Y398599D01*
X418603Y398632D01*
X418633Y398671D01*
X418665Y398720D01*
X418698Y398773D01*
X418734Y398832D01*
X418770Y398901D01*
X418803Y398973D01*
X418839Y399051D01*
X418869Y399140D01*
X418898Y399232D01*
X418925Y399334D01*
X419912Y399019D01*
Y399015D01*
X419909Y399009D01*
X419905Y398999D01*
X419902Y398983D01*
X419895Y398963D01*
X419889Y398940D01*
X419879Y398914D01*
X419869Y398884D01*
X419843Y398815D01*
X419810Y398737D01*
X419774Y398651D01*
X419731Y398556D01*
X419682Y398458D01*
X419627Y398359D01*
X419564Y398258D01*
X419495Y398156D01*
X419420Y398058D01*
X419338Y397962D01*
X419249Y397874D01*
X419154Y397795D01*
X419148Y397792D01*
X419131Y397779D01*
X419102Y397759D01*
X419059Y397733D01*
X419006Y397703D01*
X418944Y397667D01*
X418872Y397631D01*
X418790Y397595D01*
X418698Y397559D01*
X418597Y397523D01*
X418485Y397487D01*
X418367Y397457D01*
X418239Y397431D01*
X418105Y397411D01*
X417964Y397398D01*
X417816Y397395D01*
X417770D01*
X417747Y397398D01*
X417718D01*
X417685Y397402D01*
X417649Y397405D01*
X417609Y397411D01*
X417563Y397415D01*
X417514Y397425D01*
X417465Y397431D01*
X417353Y397454D01*
X417232Y397480D01*
X417104Y397516D01*
X416973Y397562D01*
X416835Y397618D01*
X416694Y397684D01*
X416556Y397762D01*
X416488Y397808D01*
X416422Y397854D01*
X416353Y397907D01*
X416287Y397959D01*
X416225Y398018D01*
X416163Y398080D01*
X416159Y398084D01*
X416156Y398087D01*
X416146Y398097D01*
X416137Y398113D01*
X416120Y398130D01*
X416104Y398153D01*
X416084Y398176D01*
X416061Y398205D01*
X416038Y398238D01*
X416012Y398277D01*
X415986Y398317D01*
X415959Y398359D01*
X415930Y398409D01*
X415900Y398458D01*
X415871Y398514D01*
X415841Y398573D01*
X415808Y398635D01*
X415779Y398700D01*
X415750Y398769D01*
X415720Y398842D01*
X415694Y398917D01*
X415667Y398996D01*
X415641Y399078D01*
X415618Y399163D01*
X415576Y399340D01*
X415543Y399534D01*
X415533Y399635D01*
X415523Y399740D01*
X415520Y399845D01*
X415517Y399957D01*
Y399960D01*
Y399970D01*
Y399990D01*
Y400012D01*
X415520Y400042D01*
Y400078D01*
X415523Y400117D01*
X415526Y400163D01*
X415530Y400216D01*
X415536Y400272D01*
X415543Y400331D01*
X415549Y400393D01*
X415559Y400459D01*
X415572Y400527D01*
X415599Y400675D01*
X415631Y400829D01*
X415674Y400987D01*
X415727Y401151D01*
X415792Y401311D01*
X415864Y401472D01*
X415907Y401551D01*
X415953Y401629D01*
X415999Y401702D01*
X416051Y401774D01*
X416107Y401846D01*
X416166Y401912D01*
X416169Y401915D01*
X416173Y401918D01*
X416183Y401928D01*
X416196Y401941D01*
X416212Y401958D01*
X416235Y401977D01*
X416258Y401997D01*
X416284Y402020D01*
X416317Y402046D01*
X416350Y402072D01*
X416389Y402102D01*
X416429Y402131D01*
X416474Y402164D01*
X416520Y402194D01*
X416625Y402259D01*
X416743Y402325D01*
X416871Y402387D01*
X417012Y402446D01*
X417163Y402499D01*
X417327Y402541D01*
X417501Y402577D01*
X417593Y402591D01*
X417685Y402600D01*
X417780Y402604D01*
X417878Y402607D01*
X417918D01*
X417941Y402604D01*
D02*
G37*
G36*
X420978Y442518D02*
X421037D01*
X421106Y442515D01*
X421178Y442509D01*
X421253Y442505D01*
X421332Y442499D01*
X421493Y442482D01*
X421568Y442469D01*
X421644Y442459D01*
X421716Y442443D01*
X421781Y442427D01*
X421788D01*
X421801Y442420D01*
X421824Y442413D01*
X421857Y442400D01*
X421893Y442387D01*
X421939Y442368D01*
X421988Y442345D01*
X422044Y442318D01*
X422100Y442289D01*
X422162Y442256D01*
X422224Y442217D01*
X422287Y442174D01*
X422352Y442128D01*
X422418Y442076D01*
X422480Y442020D01*
X422539Y441961D01*
X422542Y441958D01*
X422552Y441944D01*
X422569Y441928D01*
X422592Y441902D01*
X422618Y441869D01*
X422647Y441830D01*
X422683Y441784D01*
X422719Y441735D01*
X422756Y441675D01*
X422798Y441613D01*
X422838Y441547D01*
X422877Y441475D01*
X422916Y441400D01*
X422952Y441318D01*
X422989Y441233D01*
X423021Y441144D01*
X423025Y441138D01*
X423028Y441121D01*
X423038Y441095D01*
X423047Y441059D01*
X423061Y441010D01*
X423074Y440954D01*
X423090Y440888D01*
X423106Y440816D01*
X423120Y440731D01*
X423136Y440642D01*
X423149Y440544D01*
X423162Y440439D01*
X423172Y440327D01*
X423182Y440209D01*
X423185Y440085D01*
X423188Y439953D01*
Y439950D01*
Y439947D01*
Y439937D01*
Y439927D01*
Y439894D01*
X423185Y439849D01*
Y439796D01*
X423182Y439734D01*
X423175Y439662D01*
X423169Y439586D01*
X423162Y439504D01*
X423152Y439416D01*
X423123Y439238D01*
X423087Y439055D01*
X423061Y438963D01*
X423034Y438878D01*
X423031Y438871D01*
X423025Y438855D01*
X423015Y438825D01*
X422998Y438786D01*
X422979Y438740D01*
X422956Y438687D01*
X422926Y438625D01*
X422897Y438563D01*
X422860Y438490D01*
X422818Y438418D01*
X422775Y438346D01*
X422726Y438271D01*
X422674Y438199D01*
X422618Y438127D01*
X422559Y438054D01*
X422493Y437989D01*
X422490Y437985D01*
X422480Y437979D01*
X422467Y437962D01*
X422444Y437946D01*
X422418Y437923D01*
X422385Y437900D01*
X422349Y437871D01*
X422303Y437841D01*
X422257Y437808D01*
X422201Y437776D01*
X422142Y437743D01*
X422080Y437710D01*
X422011Y437677D01*
X421939Y437644D01*
X421860Y437615D01*
X421778Y437585D01*
X421775D01*
X421762Y437582D01*
X421742Y437575D01*
X421716Y437569D01*
X421683Y437562D01*
X421640Y437552D01*
X421594Y437543D01*
X421539Y437533D01*
X421476Y437523D01*
X421411Y437513D01*
X421335Y437503D01*
X421257Y437497D01*
X421168Y437490D01*
X421076Y437484D01*
X420978Y437480D01*
X418961D01*
Y442522D01*
X420925D01*
X420978Y442518D01*
D02*
G37*
G36*
X412663Y397480D02*
X411640D01*
X409606Y400767D01*
Y397480D01*
X408661D01*
Y402522D01*
X409652D01*
X411715Y399153D01*
Y402522D01*
X412663D01*
Y397480D01*
D02*
G37*
G36*
X411548Y437480D02*
X410462D01*
X408661Y442522D01*
X409763D01*
X411039Y438789D01*
X412276Y442522D01*
X413355D01*
X411548Y437480D01*
D02*
G37*
%LPC*%
G36*
X410360Y411669D02*
X409678D01*
Y410239D01*
X410334D01*
X410383Y410242D01*
X410436D01*
X410498Y410245D01*
X410564Y410249D01*
X410698Y410258D01*
X410764Y410265D01*
X410829Y410272D01*
X410892Y410281D01*
X410948Y410291D01*
X410997Y410304D01*
X411039Y410318D01*
X411043D01*
X411049Y410321D01*
X411059Y410327D01*
X411072Y410334D01*
X411108Y410350D01*
X411154Y410377D01*
X411207Y410413D01*
X411259Y410455D01*
X411312Y410504D01*
X411358Y410564D01*
Y410567D01*
X411364Y410570D01*
X411367Y410580D01*
X411377Y410593D01*
X411384Y410609D01*
X411394Y410629D01*
X411417Y410678D01*
X411440Y410734D01*
X411456Y410803D01*
X411469Y410875D01*
X411476Y410957D01*
Y410960D01*
Y410970D01*
Y410983D01*
X411472Y411003D01*
Y411026D01*
X411466Y411052D01*
X411456Y411118D01*
X411436Y411190D01*
X411407Y411265D01*
X411387Y411302D01*
X411367Y411341D01*
X411341Y411377D01*
X411312Y411410D01*
X411308Y411413D01*
X411305Y411416D01*
X411295Y411426D01*
X411282Y411439D01*
X411266Y411452D01*
X411249Y411469D01*
X411200Y411505D01*
X411141Y411544D01*
X411072Y411580D01*
X410993Y411610D01*
X410905Y411633D01*
X410902D01*
X410895Y411636D01*
X410885D01*
X410869Y411639D01*
X410846Y411643D01*
X410816Y411646D01*
X410784Y411649D01*
X410744Y411653D01*
X410698Y411656D01*
X410646Y411659D01*
X410583D01*
X410518Y411662D01*
X410442Y411666D01*
X410360Y411669D01*
D02*
G37*
G36*
X415461Y441669D02*
X414890D01*
Y438330D01*
X415756D01*
X415795Y438333D01*
X415841D01*
X415887Y438336D01*
X415989Y438340D01*
X416091Y438349D01*
X416140Y438356D01*
X416186Y438359D01*
X416228Y438369D01*
X416268Y438376D01*
X416271D01*
X416278Y438379D01*
X416291Y438382D01*
X416310Y438389D01*
X416330Y438395D01*
X416353Y438402D01*
X416412Y438425D01*
X416478Y438454D01*
X416543Y438490D01*
X416612Y438533D01*
X416678Y438586D01*
X416681Y438589D01*
X416684Y438592D01*
X416694Y438602D01*
X416704Y438615D01*
X416720Y438632D01*
X416734Y438651D01*
X416753Y438674D01*
X416773Y438700D01*
X416792Y438733D01*
X416816Y438769D01*
X416839Y438809D01*
X416858Y438851D01*
X416881Y438901D01*
X416904Y438953D01*
X416924Y439009D01*
X416943Y439071D01*
Y439074D01*
X416947Y439087D01*
X416953Y439107D01*
X416960Y439133D01*
X416966Y439170D01*
X416976Y439209D01*
X416986Y439258D01*
X416996Y439314D01*
X417006Y439376D01*
X417016Y439448D01*
X417025Y439524D01*
X417032Y439606D01*
X417038Y439694D01*
X417045Y439789D01*
X417048Y439891D01*
Y439996D01*
Y439999D01*
Y440003D01*
Y440022D01*
Y440052D01*
Y440091D01*
X417045Y440140D01*
X417042Y440199D01*
X417038Y440262D01*
X417035Y440327D01*
X417029Y440400D01*
X417022Y440475D01*
X417006Y440623D01*
X416993Y440695D01*
X416980Y440767D01*
X416963Y440833D01*
X416943Y440895D01*
Y440898D01*
X416940Y440908D01*
X416934Y440924D01*
X416924Y440947D01*
X416914Y440974D01*
X416901Y441003D01*
X416888Y441036D01*
X416868Y441072D01*
X416829Y441151D01*
X416779Y441233D01*
X416720Y441308D01*
X416655Y441380D01*
X416651Y441384D01*
X416645Y441387D01*
X416635Y441397D01*
X416622Y441410D01*
X416602Y441423D01*
X416583Y441439D01*
X416556Y441459D01*
X416527Y441475D01*
X416494Y441495D01*
X416461Y441518D01*
X416379Y441557D01*
X416287Y441590D01*
X416186Y441620D01*
X416183D01*
X416176Y441623D01*
X416163D01*
X416143Y441626D01*
X416117Y441633D01*
X416084Y441636D01*
X416048Y441639D01*
X416002Y441646D01*
X415950Y441649D01*
X415887Y441652D01*
X415818Y441659D01*
X415743Y441662D01*
X415658Y441666D01*
X415566D01*
X415461Y441669D01*
D02*
G37*
G36*
X420548D02*
X419977D01*
Y438330D01*
X420843D01*
X420883Y438333D01*
X420929D01*
X420974Y438336D01*
X421076Y438340D01*
X421178Y438349D01*
X421227Y438356D01*
X421273Y438359D01*
X421316Y438369D01*
X421355Y438376D01*
X421358D01*
X421365Y438379D01*
X421378Y438382D01*
X421398Y438389D01*
X421417Y438395D01*
X421440Y438402D01*
X421499Y438425D01*
X421565Y438454D01*
X421630Y438490D01*
X421699Y438533D01*
X421765Y438586D01*
X421768Y438589D01*
X421772Y438592D01*
X421781Y438602D01*
X421791Y438615D01*
X421808Y438632D01*
X421821Y438651D01*
X421840Y438674D01*
X421860Y438700D01*
X421880Y438733D01*
X421903Y438769D01*
X421926Y438809D01*
X421945Y438851D01*
X421968Y438901D01*
X421991Y438953D01*
X422011Y439009D01*
X422031Y439071D01*
Y439074D01*
X422034Y439087D01*
X422041Y439107D01*
X422047Y439133D01*
X422054Y439170D01*
X422063Y439209D01*
X422073Y439258D01*
X422083Y439314D01*
X422093Y439376D01*
X422103Y439448D01*
X422113Y439524D01*
X422119Y439606D01*
X422126Y439694D01*
X422132Y439789D01*
X422136Y439891D01*
Y439996D01*
Y439999D01*
Y440003D01*
Y440022D01*
Y440052D01*
Y440091D01*
X422132Y440140D01*
X422129Y440199D01*
X422126Y440262D01*
X422122Y440327D01*
X422116Y440400D01*
X422109Y440475D01*
X422093Y440623D01*
X422080Y440695D01*
X422067Y440767D01*
X422050Y440833D01*
X422031Y440895D01*
Y440898D01*
X422027Y440908D01*
X422021Y440924D01*
X422011Y440947D01*
X422001Y440974D01*
X421988Y441003D01*
X421975Y441036D01*
X421955Y441072D01*
X421916Y441151D01*
X421867Y441233D01*
X421808Y441308D01*
X421742Y441380D01*
X421739Y441384D01*
X421732Y441387D01*
X421722Y441397D01*
X421709Y441410D01*
X421690Y441423D01*
X421670Y441439D01*
X421644Y441459D01*
X421614Y441475D01*
X421581Y441495D01*
X421549Y441518D01*
X421466Y441557D01*
X421375Y441590D01*
X421273Y441620D01*
X421270D01*
X421263Y441623D01*
X421250D01*
X421230Y441626D01*
X421204Y441633D01*
X421171Y441636D01*
X421135Y441639D01*
X421089Y441646D01*
X421037Y441649D01*
X420974Y441652D01*
X420906Y441659D01*
X420830Y441662D01*
X420745Y441666D01*
X420653D01*
X420548Y441669D01*
D02*
G37*
G36*
X426049Y451669D02*
X424953D01*
Y450390D01*
X425826D01*
X425881Y450393D01*
X425950D01*
X426019Y450396D01*
X426098D01*
X426252Y450406D01*
X426331Y450409D01*
X426403Y450416D01*
X426469Y450422D01*
X426531Y450432D01*
X426583Y450442D01*
X426623Y450452D01*
X426626D01*
X426629Y450455D01*
X426639Y450459D01*
X426652Y450465D01*
X426685Y450478D01*
X426728Y450501D01*
X426774Y450531D01*
X426820Y450567D01*
X426865Y450613D01*
X426908Y450665D01*
Y450668D01*
X426911Y450672D01*
X426918Y450682D01*
X426925Y450691D01*
X426941Y450724D01*
X426961Y450770D01*
X426977Y450823D01*
X426993Y450888D01*
X427006Y450960D01*
X427010Y451042D01*
Y451046D01*
Y451052D01*
Y451069D01*
X427006Y451085D01*
Y451108D01*
X427003Y451131D01*
X426993Y451190D01*
X426977Y451256D01*
X426954Y451325D01*
X426921Y451390D01*
X426875Y451452D01*
Y451456D01*
X426869Y451459D01*
X426849Y451479D01*
X426820Y451505D01*
X426777Y451538D01*
X426721Y451571D01*
X426655Y451603D01*
X426580Y451633D01*
X426491Y451652D01*
X426475D01*
X426462Y451656D01*
X426442D01*
X426419Y451659D01*
X426390D01*
X426354Y451662D01*
X426255D01*
X426196Y451666D01*
X426127D01*
X426049Y451669D01*
D02*
G37*
G36*
X420427Y421669D02*
X419856D01*
Y418330D01*
X420722D01*
X420761Y418333D01*
X420807D01*
X420853Y418336D01*
X420955Y418340D01*
X421057Y418350D01*
X421106Y418356D01*
X421152Y418359D01*
X421194Y418369D01*
X421234Y418376D01*
X421237D01*
X421243Y418379D01*
X421257Y418382D01*
X421276Y418389D01*
X421296Y418395D01*
X421319Y418402D01*
X421378Y418425D01*
X421444Y418455D01*
X421509Y418491D01*
X421578Y418533D01*
X421644Y418586D01*
X421647Y418589D01*
X421650Y418592D01*
X421660Y418602D01*
X421670Y418615D01*
X421686Y418632D01*
X421699Y418651D01*
X421719Y418674D01*
X421739Y418701D01*
X421759Y418733D01*
X421781Y418769D01*
X421804Y418809D01*
X421824Y418851D01*
X421847Y418901D01*
X421870Y418953D01*
X421890Y419009D01*
X421909Y419071D01*
Y419074D01*
X421913Y419088D01*
X421919Y419107D01*
X421926Y419133D01*
X421932Y419170D01*
X421942Y419209D01*
X421952Y419258D01*
X421962Y419314D01*
X421972Y419376D01*
X421981Y419448D01*
X421991Y419524D01*
X421998Y419606D01*
X422005Y419694D01*
X422011Y419789D01*
X422014Y419891D01*
Y419996D01*
Y419999D01*
Y420003D01*
Y420022D01*
Y420052D01*
Y420091D01*
X422011Y420140D01*
X422008Y420199D01*
X422005Y420262D01*
X422001Y420327D01*
X421995Y420400D01*
X421988Y420475D01*
X421972Y420622D01*
X421958Y420695D01*
X421945Y420767D01*
X421929Y420832D01*
X421909Y420895D01*
Y420898D01*
X421906Y420908D01*
X421900Y420924D01*
X421890Y420947D01*
X421880Y420973D01*
X421867Y421003D01*
X421854Y421036D01*
X421834Y421072D01*
X421795Y421151D01*
X421745Y421233D01*
X421686Y421308D01*
X421621Y421380D01*
X421617Y421383D01*
X421611Y421387D01*
X421601Y421397D01*
X421588Y421410D01*
X421568Y421423D01*
X421549Y421439D01*
X421522Y421459D01*
X421493Y421475D01*
X421460Y421495D01*
X421427Y421518D01*
X421345Y421557D01*
X421253Y421590D01*
X421152Y421620D01*
X421148D01*
X421142Y421623D01*
X421129D01*
X421109Y421626D01*
X421083Y421633D01*
X421050Y421636D01*
X421014Y421639D01*
X420968Y421646D01*
X420916Y421649D01*
X420853Y421653D01*
X420784Y421659D01*
X420709Y421662D01*
X420624Y421666D01*
X420532D01*
X420427Y421669D01*
D02*
G37*
G36*
X410360D02*
X409678D01*
Y420239D01*
X410334D01*
X410383Y420242D01*
X410436D01*
X410498Y420245D01*
X410564Y420249D01*
X410698Y420259D01*
X410764Y420265D01*
X410829Y420272D01*
X410892Y420281D01*
X410948Y420291D01*
X410997Y420304D01*
X411039Y420318D01*
X411043D01*
X411049Y420321D01*
X411059Y420327D01*
X411072Y420334D01*
X411108Y420350D01*
X411154Y420377D01*
X411207Y420413D01*
X411259Y420455D01*
X411312Y420505D01*
X411358Y420564D01*
Y420567D01*
X411364Y420570D01*
X411367Y420580D01*
X411377Y420593D01*
X411384Y420609D01*
X411394Y420629D01*
X411417Y420678D01*
X411440Y420734D01*
X411456Y420803D01*
X411469Y420875D01*
X411476Y420957D01*
Y420960D01*
Y420970D01*
Y420983D01*
X411472Y421003D01*
Y421026D01*
X411466Y421052D01*
X411456Y421118D01*
X411436Y421190D01*
X411407Y421265D01*
X411387Y421302D01*
X411367Y421341D01*
X411341Y421377D01*
X411312Y421410D01*
X411308Y421413D01*
X411305Y421416D01*
X411295Y421426D01*
X411282Y421439D01*
X411266Y421452D01*
X411249Y421469D01*
X411200Y421505D01*
X411141Y421544D01*
X411072Y421580D01*
X410993Y421610D01*
X410905Y421633D01*
X410902D01*
X410895Y421636D01*
X410885D01*
X410869Y421639D01*
X410846Y421643D01*
X410816Y421646D01*
X410784Y421649D01*
X410744Y421653D01*
X410698Y421656D01*
X410646Y421659D01*
X410583D01*
X410518Y421662D01*
X410442Y421666D01*
X410360Y421669D01*
D02*
G37*
G36*
X420988Y431669D02*
X420417D01*
Y428330D01*
X421283D01*
X421322Y428333D01*
X421368D01*
X421414Y428336D01*
X421516Y428340D01*
X421617Y428349D01*
X421667Y428356D01*
X421712Y428359D01*
X421755Y428369D01*
X421795Y428376D01*
X421798D01*
X421804Y428379D01*
X421817Y428382D01*
X421837Y428389D01*
X421857Y428395D01*
X421880Y428402D01*
X421939Y428425D01*
X422005Y428454D01*
X422070Y428490D01*
X422139Y428533D01*
X422204Y428586D01*
X422208Y428589D01*
X422211Y428592D01*
X422221Y428602D01*
X422231Y428615D01*
X422247Y428632D01*
X422260Y428651D01*
X422280Y428674D01*
X422300Y428700D01*
X422319Y428733D01*
X422342Y428769D01*
X422365Y428809D01*
X422385Y428851D01*
X422408Y428901D01*
X422431Y428953D01*
X422450Y429009D01*
X422470Y429071D01*
Y429074D01*
X422473Y429087D01*
X422480Y429107D01*
X422487Y429133D01*
X422493Y429170D01*
X422503Y429209D01*
X422513Y429258D01*
X422523Y429314D01*
X422533Y429376D01*
X422542Y429448D01*
X422552Y429524D01*
X422559Y429606D01*
X422565Y429694D01*
X422572Y429789D01*
X422575Y429891D01*
Y429996D01*
Y429999D01*
Y430003D01*
Y430022D01*
Y430052D01*
Y430091D01*
X422572Y430140D01*
X422569Y430199D01*
X422565Y430262D01*
X422562Y430327D01*
X422555Y430400D01*
X422549Y430475D01*
X422533Y430622D01*
X422519Y430695D01*
X422506Y430767D01*
X422490Y430832D01*
X422470Y430895D01*
Y430898D01*
X422467Y430908D01*
X422460Y430924D01*
X422450Y430947D01*
X422441Y430973D01*
X422428Y431003D01*
X422414Y431036D01*
X422395Y431072D01*
X422355Y431151D01*
X422306Y431233D01*
X422247Y431308D01*
X422182Y431380D01*
X422178Y431384D01*
X422172Y431387D01*
X422162Y431397D01*
X422149Y431410D01*
X422129Y431423D01*
X422109Y431439D01*
X422083Y431459D01*
X422054Y431475D01*
X422021Y431495D01*
X421988Y431518D01*
X421906Y431557D01*
X421814Y431590D01*
X421712Y431620D01*
X421709D01*
X421703Y431623D01*
X421690D01*
X421670Y431626D01*
X421644Y431633D01*
X421611Y431636D01*
X421575Y431639D01*
X421529Y431646D01*
X421476Y431649D01*
X421414Y431652D01*
X421345Y431659D01*
X421270Y431662D01*
X421184Y431666D01*
X421093D01*
X420988Y431669D01*
D02*
G37*
%LPD*%
D12*
X441732Y417323D02*
G03*
X441732Y417323I-787J0D01*
G01*
D15*
X445472Y424016D02*
G03*
X445472Y424016I-394J0D01*
G01*
M02*
